HIERARCHY
ROOT hip
{
	OFFSET 0.000000 0.000000 0.000000
	CHANNELS 6 Xposition Yposition Zposition Xrotation Zrotation Yrotation 
	JOINT abdomen
	{
		OFFSET 0.000000 3.422050 0.000000
		CHANNELS 3 Xrotation Zrotation Yrotation 
		JOINT chest
		{
			OFFSET 0.000000 8.486693 -0.684411
			CHANNELS 3 Xrotation Zrotation Yrotation 
			JOINT neck
			{
				OFFSET 0.000000 10.266162 -0.273764
				CHANNELS 3 Xrotation Zrotation Yrotation 
				JOINT head
				{
					OFFSET 0.000000 3.148285 0.000000
					CHANNELS 3 Xrotation Zrotation Yrotation 
					End Site
					{
						OFFSET 0.000000 3.148289 0.000000
					}
				}
			}
			JOINT lCollar
			{
				OFFSET 3.422053 6.707223 -0.821293
				CHANNELS 3 Yrotation Zrotation Xrotation 
				JOINT lShldr
				{
					OFFSET 3.285171 0.000000 0.000000
					CHANNELS 3 Zrotation Yrotation Xrotation 
					JOINT lForeArm
					{
						OFFSET 10.129278 0.000000 0.000000
						CHANNELS 3 Yrotation Zrotation Xrotation 
						JOINT lHand
						{
							OFFSET 8.486692 0.000000 0.000000
							CHANNELS 3 Zrotation Yrotation Xrotation 
							End Site
							{
								OFFSET 4.106464 0.000000 0.000000
							}
						}
					}
				}
			}
			JOINT rCollar
			{
				OFFSET -3.558935 6.707223 -0.821293
				CHANNELS 3 Yrotation Zrotation Xrotation 
				JOINT rShldr
				{
					OFFSET -3.148289 0.000000 0.000000
					CHANNELS 3 Zrotation Yrotation Xrotation 
					JOINT rForeArm
					{
						OFFSET -10.266159 0.000000 0.000000
						CHANNELS 3 Yrotation Zrotation Xrotation 
						JOINT rHand
						{
							OFFSET -8.349810 0.000000 0.000000
							CHANNELS 3 Zrotation Yrotation Xrotation 
							End Site
							{
								OFFSET -4.106464 0.000000 0.000000
							}
						}
					}
				}
			}
		}
	}
	JOINT lThigh
	{
		OFFSET 5.338403 -1.642589 1.368821
		CHANNELS 3 Xrotation Zrotation Yrotation 
		JOINT lShin
		{
			OFFSET -2.053232 -20.121670 0.000000
			CHANNELS 3 Xrotation Zrotation Yrotation 
			JOINT lFoot
			{
				OFFSET 0.000000 -19.300380 -1.231939
				CHANNELS 3 Xrotation Yrotation Zrotation 
				End Site
				{
					OFFSET 0.000000 -2.463878 4.653993
				}
			}
		}
	}
	JOINT rThigh
	{
		OFFSET -5.338403 -1.642589 1.368821
		CHANNELS 3 Xrotation Zrotation Yrotation 
		JOINT rShin
		{
			OFFSET 2.053232 -20.121670 0.000000
			CHANNELS 3 Xrotation Zrotation Yrotation 
			JOINT rFoot
			{
				OFFSET 0.000000 -19.300380 -1.231939
				CHANNELS 3 Xrotation Yrotation Zrotation 
				End Site
				{
					OFFSET 0.000000 -2.463878 4.653993
				}
			}
		}
	}
}
MOTION
Frames: 13
Frame Time: 0.033264
0.429528 42.744518 13.083681 28.125364 0.000000 0.000000 2.523265 0.311076 -0.421387 -10.840359 1.540419 -1.877113 1.687310 16.237352 9.449475 1.679877 0.000000 0.000000 -7.964894 -27.866032 31.798540 -38.925274 -30.112902 -61.144749 -140.673035 -70.898552 -140.412231 31.919338 -44.018192 99.164360 4.852974 25.166416 33.075710 38.479473 29.318882 -61.660065 144.540573 69.531296 -144.017914 -30.835838 36.619007 101.416107 -52.118561 20.702700 12.458884 30.869968 -4.283531 1.824843 6.306527 7.271430 4.331067 -52.027878 -21.395355 -10.499241 29.413261 4.267155 -1.699958 8.360813 -8.693844 -2.517761 
0.429528 42.744518 13.001979 28.752798 0.000000 0.000000 2.323225 0.311115 -0.421387 -11.543814 1.540351 -1.877060 1.175121 16.145584 9.390901 0.616675 0.000000 0.000000 -7.853106 -27.832458 31.975803 -38.925274 -30.112902 -61.144749 -141.092377 -70.768311 -140.804047 32.285698 -43.977673 99.003807 4.742846 25.121578 33.245651 38.479473 29.318882 -61.660065 144.540573 69.531296 -144.017914 -30.835838 36.619007 101.416107 -52.906143 20.626745 12.237247 30.869968 -4.283531 1.824843 6.501941 7.463543 4.322642 -52.811989 -21.313412 -10.253066 29.413261 4.267155 -1.699958 8.566981 -8.904975 -2.491333 
0.429528 42.744518 12.920278 29.380148 0.000000 0.000000 2.123189 0.311154 -0.421386 -12.247161 1.540285 -1.877007 0.663148 16.053293 9.333196 -0.447625 0.000000 0.000000 -7.741477 -27.798588 32.152943 -38.925274 -30.112902 -61.144749 -141.506256 -70.637138 -141.190399 32.651638 -43.936420 98.843735 4.632907 25.076445 33.415432 38.479473 29.318882 -61.660065 144.540573 69.531296 -144.017914 -30.835838 36.619007 101.416107 -53.692867 20.547962 12.016893 30.869968 -4.283531 1.824843 6.697464 7.655621 4.313552 -53.595131 -21.228354 -10.008292 29.413261 4.267155 -1.699958 8.773361 -9.116004 -2.464121 
0.429528 42.744518 12.838575 30.007402 0.000000 0.000000 1.923156 0.311193 -0.421386 -12.950351 1.540218 -1.876953 0.151407 15.960494 9.276367 -1.512850 0.000000 0.000000 -7.629999 -27.764412 32.329948 -38.925274 -30.112902 -61.144749 -141.914856 -70.505074 -141.571442 33.017143 -43.894440 98.684151 4.523156 25.031008 33.585052 38.479473 29.318882 -61.660065 144.540573 69.531296 -144.017914 -30.835838 36.619007 101.416107 -54.478638 20.466368 11.797886 30.869968 -4.283531 1.824843 6.893102 7.847663 4.303797 -54.377232 -21.140211 -9.764998 29.413261 4.267155 -1.699958 8.979959 -9.326929 -2.436124 
0.429528 42.744518 12.756874 30.634489 0.000000 0.000000 1.723128 0.311232 -0.421386 -13.653325 1.540153 -1.876898 -0.360080 15.867195 9.220417 -2.578812 0.000000 0.000000 -7.518677 -27.729927 32.506813 -38.925274 -30.112902 -61.144749 -142.318130 -70.372124 -141.947144 33.382217 -43.851727 98.525047 4.413598 24.985277 33.754498 38.479473 29.318882 -61.660065 144.540573 69.531296 -144.017914 -30.835838 36.619007 101.416107 -55.263401 20.382006 11.580283 30.869968 -4.283531 1.824843 7.088854 8.039661 4.293376 -55.158184 -21.049007 -9.523236 29.413261 4.267155 -1.699958 9.186775 -9.537737 -2.407339 
0.429528 42.744518 12.675172 31.261395 0.000000 0.000000 1.523107 0.311271 -0.421386 -14.356037 1.540088 -1.876842 -0.871297 15.773409 9.165357 -3.645328 0.000000 0.000000 -7.407515 -27.695143 32.683556 -38.925274 -30.112902 -61.144749 -142.716202 -70.238289 -142.317642 33.746830 -43.808285 98.366463 4.304234 24.939260 33.923786 38.479473 29.318882 -61.660065 144.540573 69.531296 -144.017914 -30.835838 36.619007 101.416107 -56.047054 20.294899 11.364146 30.869968 -4.283531 1.824843 7.284725 8.231611 4.282288 -55.937916 -20.954782 -9.283081 29.413261 4.267155 -1.699958 9.393815 -9.748429 -2.377767 
0.429528 42.744518 12.593470 31.888073 0.000000 0.000000 1.323091 0.311310 -0.421387 -15.058432 1.540024 -1.876786 -1.382223 15.679149 9.111190 -4.712214 0.000000 0.000000 -7.296515 -27.660059 32.860153 -38.925274 -30.112902 -61.144749 -143.109100 -70.103546 -142.682983 34.110996 -43.764133 98.208412 4.195062 24.892956 34.092922 38.479473 29.318882 -61.660065 144.540573 69.531296 -144.017914 -30.835838 36.619007 101.416107 -56.829502 20.205070 11.149527 30.869968 -4.283531 1.824843 7.480717 8.423511 4.270531 -56.716335 -20.857565 -9.044590 29.413261 4.267155 -1.699958 9.601085 -9.959002 -2.347406 
0.429528 42.744518 12.511768 32.514496 0.000000 0.000000 1.123085 0.311349 -0.421387 -15.760457 1.539961 -1.876729 -1.892841 15.584420 9.057919 -5.779286 0.000000 0.000000 -7.185672 -27.624664 33.036606 -38.925274 -30.112902 -61.144749 -143.496948 -69.968025 -143.043213 34.474674 -43.719238 98.050850 4.086087 24.846354 34.261879 38.479473 29.318882 -61.660065 144.540573 69.531296 -144.017914 -30.835838 36.619007 101.416107 -57.610680 20.112560 10.936486 30.869968 -4.283531 1.824843 7.676830 8.615353 4.258106 -57.493370 -20.757395 -8.807825 29.413261 4.267155 -1.699958 9.808581 -10.169442 -2.316254 
0.429528 42.744518 12.430066 33.140606 0.000000 0.000000 0.923088 0.311388 -0.421387 -16.462053 1.539898 -1.876671 -2.403132 15.489239 9.005549 -6.846357 0.000000 0.000000 -7.074996 -27.588972 33.212921 -38.925274 -30.112902 -61.144749 -143.879761 -69.831657 -143.398453 34.837879 -43.673641 97.893829 3.977306 24.799461 34.430668 38.479473 29.318882 -61.660065 144.540573 69.531296 -144.017914 -30.835838 36.619007 101.416107 -58.390488 20.017403 10.725078 30.869968 -4.283531 1.824843 7.873068 8.807134 4.245012 -58.268913 -20.654297 -8.572846 29.413261 4.267155 -1.699958 10.016310 -10.379749 -2.284311 
0.429528 42.744518 12.348364 33.766396 0.000000 0.000000 0.723103 0.311427 -0.421388 -17.163185 1.539837 -1.876612 -2.913079 15.393616 8.954088 -7.913245 0.000000 0.000000 -6.964480 -27.552988 33.389111 -38.925274 -30.112902 -61.144749 -144.257690 -69.694527 -143.748764 35.200581 -43.627323 97.737366 3.868724 24.752283 34.599289 38.479473 29.318882 -61.660065 144.540573 69.531296 -144.017914 -30.835838 36.619007 101.416107 -59.168842 19.919619 10.515351 30.869968 -4.283531 1.824843 8.069435 8.998853 4.231247 -59.042896 -20.548319 -8.339713 29.413258 4.267155 -1.699958 10.224274 -10.589914 -2.251573 
0.429528 42.744518 12.266663 34.391800 0.000000 0.000000 0.523130 0.311466 -0.421389 -17.863789 1.539775 -1.876553 -3.422661 15.297568 8.903542 -8.979757 0.000000 0.000000 -6.854134 -27.516699 33.565140 -38.925274 -30.112902 -61.144749 -144.630753 -69.556595 -144.094208 35.562790 -43.580303 97.581429 3.760342 24.704819 34.767750 38.479473 29.318882 -61.660065 144.540573 69.531296 -144.017914 -30.835838 36.619007 101.416107 -59.945694 19.819258 10.307359 30.869968 -4.283531 1.824843 8.265928 9.190498 4.216810 -59.815220 -20.439489 -8.108479 29.413258 4.267155 -1.699958 10.432475 -10.799932 -2.218041 
0.429528 42.744518 12.184960 35.016804 0.000000 0.000000 0.323170 0.311505 -0.421390 -18.563810 1.539715 -1.876493 -3.931863 15.201097 8.853909 -10.045721 0.000000 0.000000 -6.743953 -27.480112 33.741032 -38.925274 -30.112902 -61.144749 -144.999008 -69.417892 -144.434814 35.924488 -43.532574 97.426056 3.652159 24.657066 34.936039 38.479473 29.318882 -61.660065 144.540573 69.531296 -144.017914 -30.835838 36.619007 101.416107 -60.720928 19.716349 10.101154 30.869968 -4.283531 1.824843 8.462556 9.382072 4.201703 -60.585842 -20.327862 -7.879206 29.413261 4.267155 -1.699958 10.640922 -11.009801 -2.183713 
0.429528 42.744518 12.103258 35.641350 0.000000 0.000000 0.123225 0.311544 -0.421391 -19.263203 1.539656 -1.876432 -4.440665 15.104220 8.805198 -11.110947 0.000000 0.000000 -6.633943 -27.443216 33.916759 -38.925274 -30.112902 -61.144749 -145.362534 -69.278435 -144.770706 36.285664 -43.484138 97.271255 3.544178 24.609026 35.104145 38.479473 29.318882 -61.660065 144.540573 69.531296 -144.017914 -30.835838 36.619007 101.416107 -61.494495 19.610933 9.896786 30.869968 -4.283531 1.824843 8.659316 9.573565 4.185921 -61.354668 -20.213470 -7.651941 29.413261 4.267155 -1.699958 10.849615 -11.219513 -2.148589 
